<?xml version="1.0" encoding="UTF-8" standalone="no"?>
<!-- Created with Inkscape (http://www.inkscape.org/) -->

<svg
   xmlns:osb="http://www.openswatchbook.org/uri/2009/osb"
   xmlns:dc="http://purl.org/dc/elements/1.1/"
   xmlns:cc="http://creativecommons.org/ns#"
   xmlns:rdf="http://www.w3.org/1999/02/22-rdf-syntax-ns#"
   xmlns:svg="http://www.w3.org/2000/svg"
   xmlns="http://www.w3.org/2000/svg"
   xmlns:xlink="http://www.w3.org/1999/xlink"
   xmlns:sodipodi="http://sodipodi.sourceforge.net/DTD/sodipodi-0.dtd"
   xmlns:inkscape="http://www.inkscape.org/namespaces/inkscape"
   width="64px"
   height="64px"
   id="svg3953"
   version="1.1"
   inkscape:version="0.91 r13725"
   sodipodi:docname="wikitolearn-logo-wtlh.svg"
   inkscape:export-filename="/home/dario/git-project/wtl-design/Logo/Telegram/wikitolearn-logo-wtlh.svg.png"
   inkscape:export-xdpi="2812.5"
   inkscape:export-ydpi="2812.5">
  <defs
     id="defs3955">
    <linearGradient
       id="linearGradient5674"
       osb:paint="solid">
      <stop
         style="stop-color:#000000;stop-opacity:0;"
         offset="0"
         id="stop5676" />
    </linearGradient>
    <linearGradient
       inkscape:collect="always"
       xlink:href="#linearGradient5674"
       id="linearGradient5678"
       x1="-0.87906152"
       y1="33.454677"
       x2="64.565218"
       y2="33.454677"
       gradientUnits="userSpaceOnUse" />
    <linearGradient
       inkscape:collect="always"
       xlink:href="#linearGradient5674"
       id="linearGradient5686"
       gradientUnits="userSpaceOnUse"
       x1="-0.87906152"
       y1="33.454677"
       x2="64.565218"
       y2="33.454677" />
    <linearGradient
       inkscape:collect="always"
       xlink:href="#linearGradient5674"
       id="linearGradient5688"
       gradientUnits="userSpaceOnUse"
       x1="-0.87906152"
       y1="33.454677"
       x2="64.565218"
       y2="33.454677" />
    <linearGradient
       inkscape:collect="always"
       xlink:href="#linearGradient5674"
       id="linearGradient5690"
       gradientUnits="userSpaceOnUse"
       x1="-0.87906152"
       y1="33.454677"
       x2="64.565218"
       y2="33.454677" />
  </defs>
  <sodipodi:namedview
     id="base"
     pagecolor="#ffffff"
     bordercolor="#666666"
     borderopacity="1.0"
     inkscape:pageopacity="1"
     inkscape:pageshadow="2"
     inkscape:zoom="11"
     inkscape:cx="41.724562"
     inkscape:cy="36.386578"
     inkscape:current-layer="layer1"
     showgrid="true"
     inkscape:document-units="px"
     inkscape:grid-bbox="true"
     inkscape:window-width="1920"
     inkscape:window-height="1006"
     inkscape:window-x="0"
     inkscape:window-y="45"
     inkscape:window-maximized="1" />
  <metadata
     id="metadata3958">
    <rdf:RDF>
      <cc:Work
         rdf:about="">
        <dc:format>image/svg+xml</dc:format>
        <dc:type
           rdf:resource="http://purl.org/dc/dcmitype/StillImage" />
        <dc:title></dc:title>
      </cc:Work>
    </rdf:RDF>
  </metadata>
  <g
     id="layer1"
     inkscape:label="Layer 1"
     inkscape:groupmode="layer">
    <g
       id="g4183"
       transform="matrix(0.51733664,0,0,0.51733664,15.039878,16.921959)">
      <circle
         transform="matrix(0.12109331,0,0,0.12109331,-13.265786,-28.37566)"
         id="path3880"
         style="color:#000000;display:inline;overflow:visible;visibility:visible;fill:#ffbc31;fill-opacity:1;fill-rule:nonzero;stroke:none;stroke-width:1px;marker:none;enable-background:accumulate"
         cx="376.20291"
         cy="497.17288"
         r="54.137863" />
      <circle
         style="color:#000000;display:inline;overflow:visible;visibility:visible;fill:#ffbc31;fill-opacity:1;fill-rule:nonzero;stroke:none;stroke-width:1px;marker:none;enable-background:accumulate"
         id="path3882"
         transform="matrix(0.08332659,0,0,0.08332659,16.16315,-9.5666113)"
         cx="376.20291"
         cy="497.17288"
         r="54.137863" />
      <circle
         transform="matrix(0.08332659,0,0,0.08332659,-14.084095,-9.5666113)"
         id="path3884"
         style="color:#000000;display:inline;overflow:visible;visibility:visible;fill:#ffbc31;fill-opacity:1;fill-rule:nonzero;stroke:none;stroke-width:1px;marker:none;enable-background:accumulate"
         cx="376.20291"
         cy="497.17288"
         r="54.137863" />
      <circle
         style="color:#000000;display:inline;overflow:visible;visibility:visible;fill:#db3e14;fill-opacity:1;fill-rule:nonzero;stroke:none;stroke-width:1px;marker:none;enable-background:accumulate"
         id="path3886"
         transform="matrix(0.08332659,0,0,0.08332659,1.0395274,-23.521885)"
         cx="376.20291"
         cy="497.17288"
         r="54.137863" />
      <circle
         transform="matrix(0.08332659,0,0,0.08332659,1.0395274,4.648296)"
         id="path3888"
         style="color:#000000;display:inline;overflow:visible;visibility:visible;fill:#6ab141;fill-opacity:1;fill-rule:nonzero;stroke:none;stroke-width:1px;marker:none;enable-background:accumulate"
         cx="376.20291"
         cy="497.17288"
         r="54.137863" />
      <circle
         style="color:#000000;display:inline;overflow:visible;visibility:visible;fill:#6ab141;fill-opacity:1;fill-rule:nonzero;stroke:none;stroke-width:1px;marker:none;enable-background:accumulate"
         id="path3890"
         transform="matrix(0.05958871,0,0,0.05958871,23.073397,14.820776)"
         cx="376.20291"
         cy="497.17288"
         r="54.137863" />
      <circle
         transform="matrix(0.05958871,0,0,0.05958871,23.073397,-9.7800509)"
         id="path3892"
         style="color:#000000;display:inline;overflow:visible;visibility:visible;fill:#db3e14;fill-opacity:1;fill-rule:nonzero;stroke:none;stroke-width:1px;marker:none;enable-background:accumulate"
         cx="376.20291"
         cy="497.17288"
         r="54.137863" />
      <circle
         style="color:#000000;display:inline;overflow:visible;visibility:visible;fill:#db3e14;fill-opacity:1;fill-rule:nonzero;stroke:none;stroke-width:1px;marker:none;enable-background:accumulate"
         id="path3894"
         transform="matrix(0.05958871,0,0,0.05958871,-3.2715184,-9.7800509)"
         cx="376.20291"
         cy="497.17288"
         r="54.137863" />
      <circle
         transform="matrix(0.05958871,0,0,0.05958871,-3.2715184,14.912571)"
         id="path3896"
         style="color:#000000;display:inline;overflow:visible;visibility:visible;fill:#6ab141;fill-opacity:1;fill-rule:nonzero;stroke:none;stroke-width:1px;marker:none;enable-background:accumulate"
         cx="376.20291"
         cy="497.17288"
         r="54.137863" />
      <circle
         style="color:#000000;display:inline;overflow:visible;visibility:visible;fill:#ffbc31;fill-opacity:1;fill-rule:nonzero;stroke:none;stroke-width:1px;marker:none;enable-background:accumulate"
         id="path3898"
         transform="matrix(0.05140182,0,0,0.05140182,-12.659834,6.234627)"
         cx="376.20291"
         cy="497.17288"
         r="54.137863" />
      <circle
         transform="matrix(0.05140182,0,0,0.05140182,38.653083,6.2575758)"
         id="path3900"
         style="color:#000000;display:inline;overflow:visible;visibility:visible;fill:#ffbc31;fill-opacity:1;fill-rule:nonzero;stroke:none;stroke-width:1px;marker:none;enable-background:accumulate"
         cx="376.20291"
         cy="497.17288"
         r="54.137863" />
      <circle
         style="color:#000000;display:inline;overflow:visible;visibility:visible;fill:#83001f;fill-opacity:1;fill-rule:nonzero;stroke:none;stroke-width:1px;marker:none;enable-background:accumulate"
         id="path3902"
         transform="matrix(0.05140182,0,0,0.05140182,12.981868,-19.186459)"
         cx="376.20291"
         cy="497.17288"
         r="54.137863" />
      <circle
         transform="matrix(0.05140182,0,0,0.05140182,12.981868,32.350694)"
         id="path3904"
         style="color:#000000;display:inline;overflow:visible;visibility:visible;fill:#00613a;fill-opacity:1;fill-rule:nonzero;stroke:none;stroke-width:1px;marker:none;enable-background:accumulate"
         cx="376.20291"
         cy="497.17288"
         r="54.137863" />
      <circle
         style="color:#000000;display:inline;overflow:visible;visibility:visible;fill:#00613a;fill-opacity:1;fill-rule:nonzero;stroke:none;stroke-width:1px;marker:none;enable-background:accumulate"
         id="path3906"
         transform="matrix(0.03125194,0,0,0.03125194,33.273013,39.65286)"
         cx="376.20291"
         cy="497.17288"
         r="54.137863" />
      <circle
         transform="matrix(0.03125194,0,0,0.03125194,44.388551,28.43996)"
         id="path3908"
         style="color:#000000;display:inline;overflow:visible;visibility:visible;fill:#00613a;fill-opacity:1;fill-rule:nonzero;stroke:none;stroke-width:1px;marker:none;enable-background:accumulate"
         cx="376.20291"
         cy="497.17288"
         r="54.137863" />
      <circle
         style="color:#000000;display:inline;overflow:visible;visibility:visible;fill:#83001f;fill-opacity:1;fill-rule:nonzero;stroke:none;stroke-width:1px;marker:none;enable-background:accumulate"
         id="path3910"
         transform="matrix(0.03125194,0,0,0.03125194,44.409869,5.2109534)"
         cx="376.20291"
         cy="497.17288"
         r="54.137863" />
      <circle
         transform="matrix(0.03125194,0,0,0.03125194,33.229422,-6.4563061)"
         id="path3912"
         style="color:#000000;display:inline;overflow:visible;visibility:visible;fill:#83001f;fill-opacity:1;fill-rule:nonzero;stroke:none;stroke-width:1px;marker:none;enable-background:accumulate"
         cx="376.20291"
         cy="497.17288"
         r="54.137863" />
      <circle
         style="color:#000000;display:inline;overflow:visible;visibility:visible;fill:#83001f;fill-opacity:1;fill-rule:nonzero;stroke:none;stroke-width:1px;marker:none;enable-background:accumulate"
         id="path3914"
         transform="matrix(0.03125194,0,0,0.03125194,7.9211239,-6.4563061)"
         cx="376.20291"
         cy="497.17288"
         r="54.137863" />
      <circle
         transform="matrix(0.03125194,0,0,0.03125194,-3.3242307,4.7728226)"
         id="path3916"
         style="color:#000000;display:inline;overflow:visible;visibility:visible;fill:#83001f;fill-opacity:1;fill-rule:nonzero;stroke:none;stroke-width:1px;marker:none;enable-background:accumulate"
         cx="376.20291"
         cy="497.17288"
         r="54.137863" />
      <circle
         style="color:#000000;display:inline;overflow:visible;visibility:visible;fill:#00613a;fill-opacity:1;fill-rule:nonzero;stroke:none;stroke-width:1px;marker:none;enable-background:accumulate"
         id="path3918"
         transform="matrix(0.03125194,0,0,0.03125194,-3.3514526,28.410903)"
         cx="376.20291"
         cy="497.17288"
         r="54.137863" />
      <circle
         transform="matrix(0.03125194,0,0,0.03125194,7.9392249,39.609784)"
         id="path3920"
         style="color:#000000;display:inline;overflow:visible;visibility:visible;fill:#00613a;fill-opacity:1;fill-rule:nonzero;stroke:none;stroke-width:1px;marker:none;enable-background:accumulate"
         cx="376.20291"
         cy="497.17288"
         r="54.137863" />
    </g>
    <g
       id="g4225"
       transform="matrix(0.95783399,0,0,0.95783399,1.2409408,-1.2711707)"
       style="fill:url(#linearGradient5678);fill-opacity:1;fill-rule:nonzero;stroke:#000000;stroke-width:1.03239274;stroke-miterlimit:4.80000019;stroke-dasharray:none;stroke-opacity:1">
      <g
         transform="matrix(0.07245552,0,0,0.07245552,-5.20859,-2.4559883)"
         id="g4221"
         style="fill:url(#linearGradient5690);fill-opacity:1;fill-rule:nonzero;stroke:#000000;stroke-width:14.24864197;stroke-miterlimit:4.80000019;stroke-dasharray:none;stroke-opacity:1">
        <path
           inkscape:connector-curvature="0"
           d="M 950.08254,520.92118 534.57455,105.43124 c -3.3136,-3.31347 -7.17777,-5.738703 -11.29367,-7.294129 -11.57714,-4.757351 -25.38006,-2.437515 -34.7836,6.965649 L 72.660787,520.92118 c -12.488941,12.48741 -12.488941,32.73557 0,45.22297 12.488941,12.48946 32.736903,12.48946 45.225843,10e-4 l 393.48452,-393.4684 393.48452,393.4684 c 12.48894,12.48843 32.73691,12.48843 45.22585,-10e-4 12.48894,-12.4874 12.48894,-32.73556 0.001,-45.22297 z"
           id="path4213"
           style="fill:url(#linearGradient5686);fill-opacity:1;fill-rule:nonzero;stroke:#000000;stroke-width:14.24864197;stroke-linecap:butt;stroke-linejoin:miter;stroke-miterlimit:4.80000019;stroke-dasharray:none;stroke-opacity:1" />
        <path
           inkscape:connector-curvature="0"
           d="m 769.86991,534.20472 c -17.66196,0 -31.97963,14.31708 -31.97963,31.97832 l 0,265.36479 -453.31661,0 0,-265.36479 c 0,-17.66124 -14.31766,-31.97832 -31.97963,-31.97832 -17.66196,0 -31.97963,14.31708 -31.97963,31.97832 l 0,297.34311 c 0,17.10968 13.43656,31.07985 30.33409,31.93636 0.54544,0.0276 1.09396,0.042 1.64554,0.042 l 517.2769,0 c 0.6355,0 1.26588,-0.0235 1.89319,-0.0604 1.54935,-0.0911 3.07005,-0.28653 4.55185,-0.58942 4.96529,-1.01615 9.50384,-3.18863 13.34037,-6.21454 0.98958,-0.78181 1.93822,-1.61171 2.82853,-2.50199 0.10643,-0.10642 0.2057,-0.21796 0.31008,-0.32541 0.96501,-0.99261 1.87272,-2.04252 2.70368,-3.1528 0.007,-0.009 0.0133,-0.0195 0.0205,-0.0276 1.52479,-2.04457 2.81318,-4.27742 3.81914,-6.65763 0.0808,-0.19034 0.15043,-0.38477 0.22718,-0.57612 0.13406,-0.33463 0.26811,-0.66822 0.39092,-1.00898 0.26504,-0.73167 0.49632,-1.47766 0.70815,-2.23388 0.15351,-0.55054 0.29371,-1.10722 0.41855,-1.67004 0.0706,-0.32029 0.13816,-0.64161 0.19853,-0.96395 0.36841,-1.94224 0.57001,-3.94485 0.57001,-5.99453 l 0,-297.34413 c -0.002,-17.66022 -14.31971,-31.97832 -31.98168,-31.97832 z"
           id="path4215"
           style="fill:url(#linearGradient5688);fill-opacity:1;fill-rule:nonzero;stroke:#000000;stroke-width:14.24864197;stroke-miterlimit:4.80000019;stroke-dasharray:none;stroke-opacity:1" />
      </g>
    </g>
  </g>
</svg>
